<svg width="476" height="492" viewBox="0 0 476 492" fill="none" xmlns="http://www.w3.org/2000/svg">
<path fill-rule="evenodd" clip-rule="evenodd" d="M190.546 46.945C247.296 23.8439 307.858 -15.3157 365.196 6.28694C424.128 28.49 483.822 91.8066 475.158 154.175C465.646 222.644 348.124 225.157 325.707 290.549C303.985 353.915 416.124 443.12 362.389 483.126C308.974 522.895 251.659 417.64 190.546 391.179C161.674 378.678 127.337 387.07 100.956 369.93C73.6367 352.181 57.5932 323.549 42.2345 294.82C23.4879 259.755 -9.02016 223.6 2.35723 185.501C13.7282 147.424 63.6265 139.58 95.6302 116.017C127.931 92.2357 153.394 62.0682 190.546 46.945Z" fill="url(#paint0_linear_2_218)"/>
<defs>
<linearGradient id="paint0_linear_2_218" x1="0" y1="246" x2="476" y2="246" gradientUnits="userSpaceOnUse">
<stop stop-color="#00D2FF"/>
<stop offset="1" stop-color="#3A7BD5"/>
</linearGradient>
</defs>
</svg>
