<svg width="465" height="447" viewBox="0 0 465 447" fill="none" xmlns="http://www.w3.org/2000/svg">
<path fill-rule="evenodd" clip-rule="evenodd" d="M221.968 53.7211C253.986 66.0359 295.581 67.6065 312.932 97.2486C330.593 127.42 290.471 169.404 307.542 199.914C327.405 235.415 386.484 230.762 407.218 265.759C437.066 316.141 495.102 401.799 445.951 433.538C388.47 470.656 326.365 359.714 258.022 362.103C215.283 363.597 204.131 435.708 162.072 443.461C116.679 451.829 46.0084 447.879 32.3443 403.706C15.8352 350.337 110.658 311.539 104.1 256.052C97.8323 203.018 7.80689 190.887 0.931981 137.929C-5.68562 86.9523 23.4717 22.631 71.4266 4.36181C121.799 -14.8283 171.657 34.3707 221.968 53.7211Z" fill="url(#paint0_linear_2_204)"/>
<defs>
<linearGradient id="paint0_linear_2_204" x1="232.5" y1="0" x2="232.5" y2="447" gradientUnits="userSpaceOnUse">
<stop stop-color="#7C00FE"/>
<stop offset="1" stop-color="#8B5DFF"/>
</linearGradient>
</defs>
</svg>
